# xmcd
#
# Track frame offsets:
#	150
#	8147
#	18270
#	32567
#	50842
#	66735
#	77627
#	90685
#	103675
#	117270
#	127957
#	137582
#
# Disc length: 2017 seconds
#
# Revision: 1
# Processed by: cddbd v1.5.1PL0 Copyright (c) Steve Scherf et al.
# Submitted via: audiograbber 1.83.01
#
DISCID=9c07df0c
DTITLE=LAURA CAMPANÉR-MÔNICA CAMARGO - DOU LUA BRANCA-FLAUTA E VIOLÃO
DYEAR=1900
DGENRE=
TTITLE0=A BANDA
TTITLE1=PEIXE VIVO
TTITLE2=A NOITE DO MEU BEM
TTITLE3=CARINHOSO
TTITLE4=NO RANCHO FUNDO
TTITLE5=BEIJINHO DOCE
TTITLE6=MODINHA
TTITLE7=LUAR DO SERTÃO-FELICIDADES
TTITLE8=ONTEM AO LUAR
TTITLE9=LUA BRANCA
TTITLE10=UMA VOZ
TTITLE11=FILME TRISTE
EXTD=
EXTT0=
EXTT1=
EXTT2=
EXTT3=
EXTT4=
EXTT5=
EXTT6=
EXTT7=
EXTT8=
EXTT9=
EXTT10=
EXTT11=
PLAYORDER=
